<svg xmlns="http://www.w3.org/2000/svg" viewBox="0 0 800 600" role="img" aria-labelledby="title desc">
<title id="title">비빔밥 일러스트</title><desc id="desc">비빔밥를 따뜻한 플랫 일러스트로 표현한 이미지</desc>
<defs>
  <linearGradient id="bg" x1="0" y1="0" x2="1" y2="1"><stop offset="0" stop-color="#6d9a66"/><stop offset="1" stop-color="#d95743"/></linearGradient>
  <filter id="shadow" x="-30%" y="-30%" width="160%" height="160%"><feDropShadow dx="0" dy="16" stdDeviation="18" flood-color="#4f3527" flood-opacity=".18"/></filter>
  <filter id="soft" x="-30%" y="-30%" width="160%" height="160%"><feGaussianBlur stdDeviation="26"/></filter>
</defs>
<rect width="800" height="600" rx="48" fill="url(#bg)"/>
<circle cx="120" cy="100" r="92" fill="#fff" opacity=".18"/>
<circle cx="700" cy="500" r="150" fill="#fff" opacity=".12"/>
<path d="M70 476C170 414 258 447 353 430c122-22 218-101 377-42v212H70z" fill="#fff" opacity=".13"/>
<ellipse cx="400" cy="430" rx="250" ry="92" fill="#5b3a2c" opacity=".18" filter="url(#soft)"/>
<path d="M185 332h430c-18 168-92 216-215 216S203 500 185 332z" fill="#4d443d" filter="url(#shadow)"/>
<ellipse cx="400" cy="332" rx="218" ry="88" fill="#352f2b"/>
<ellipse cx="400" cy="326" rx="196" ry="70" fill="#f1e2c1"/><path d="M245 320c35-78 274-88 310 0-89 50-220 50-310 0z" fill="#fff1d3"/><g fill="none" stroke-width="32" stroke-linecap="round"><path d="M315 310l60 55" stroke="#d85342"/><path d="M370 292l26 75" stroke="#e5b445"/><path d="M425 292l-23 77" stroke="#6f9d67"/><path d="M475 310l-58 56" stroke="#a26a46"/></g><circle cx="397" cy="326" r="44" fill="#fff8e8"/><circle cx="397" cy="326" r="19" fill="#e8ad3f"/></svg>
