<svg xmlns="http://www.w3.org/2000/svg" viewBox="0 0 800 600" role="img" aria-labelledby="title desc">
<title id="title">보쌈 일러스트</title><desc id="desc">보쌈를 따뜻한 플랫 일러스트로 표현한 이미지</desc>
<defs>
  <linearGradient id="bg" x1="0" y1="0" x2="1" y2="1"><stop offset="0" stop-color="#82a66f"/><stop offset="1" stop-color="#d6a27e"/></linearGradient>
  <filter id="shadow" x="-30%" y="-30%" width="160%" height="160%"><feDropShadow dx="0" dy="16" stdDeviation="18" flood-color="#4f3527" flood-opacity=".18"/></filter>
  <filter id="soft" x="-30%" y="-30%" width="160%" height="160%"><feGaussianBlur stdDeviation="26"/></filter>
</defs>
<rect width="800" height="600" rx="48" fill="url(#bg)"/>
<circle cx="120" cy="100" r="92" fill="#fff" opacity=".18"/>
<circle cx="700" cy="500" r="150" fill="#fff" opacity=".12"/>
<path d="M70 476C170 414 258 447 353 430c122-22 218-101 377-42v212H70z" fill="#fff" opacity=".13"/>
<ellipse cx="400" cy="420" rx="270" ry="112" fill="#6e4b39" opacity=".18" filter="url(#soft)"/>
<ellipse cx="400" cy="390" rx="260" ry="126" fill="#fff" filter="url(#shadow)"/>
<ellipse cx="400" cy="390" rx="220" ry="94" fill="#f8f0dc"/><path d="M255 330c20-30 82-30 104 3 18 28-8 55-49 57-48 2-75-25-55-60z" fill="#e4b090" stroke="#b97c5b" stroke-width="5" transform="rotate(-12 307 358)"/><path d="M345 300c20-30 82-30 104 3 18 28-8 55-49 57-48 2-75-25-55-60z" fill="#e4b090" stroke="#b97c5b" stroke-width="5" transform="rotate(8 397 328)"/><path d="M430 345c20-30 82-30 104 3 18 28-8 55-49 57-48 2-75-25-55-60z" fill="#e4b090" stroke="#b97c5b" stroke-width="5" transform="rotate(-7 482 373)"/><path d="M240 408c38-60 93-48 115 3-48 25-79 23-115-3zM472 304c35-52 84-36 98 11-39 20-67 18-98-11z" fill="#76a66a"/></svg>
