<svg xmlns="http://www.w3.org/2000/svg" viewBox="0 0 800 600" role="img" aria-labelledby="title desc">
<title id="title">닭갈비 일러스트</title><desc id="desc">닭갈비를 따뜻한 플랫 일러스트로 표현한 이미지</desc>
<defs>
  <linearGradient id="bg" x1="0" y1="0" x2="1" y2="1"><stop offset="0" stop-color="#e9c56d"/><stop offset="1" stop-color="#cf5539"/></linearGradient>
  <filter id="shadow" x="-30%" y="-30%" width="160%" height="160%"><feDropShadow dx="0" dy="16" stdDeviation="18" flood-color="#4f3527" flood-opacity=".18"/></filter>
  <filter id="soft" x="-30%" y="-30%" width="160%" height="160%"><feGaussianBlur stdDeviation="26"/></filter>
</defs>
<rect width="800" height="600" rx="48" fill="url(#bg)"/>
<circle cx="120" cy="100" r="92" fill="#fff" opacity=".18"/>
<circle cx="700" cy="500" r="150" fill="#fff" opacity=".12"/>
<path d="M70 476C170 414 258 447 353 430c122-22 218-101 377-42v212H70z" fill="#fff" opacity=".13"/>
<ellipse cx="390" cy="445" rx="250" ry="82" fill="#4b3026" opacity=".2" filter="url(#soft)"/><circle cx="390" cy="365" r="185" fill="#383332" filter="url(#shadow)"/><rect x="540" y="345" width="170" height="38" rx="19" fill="#383332" transform="rotate(-8 540 345)"/><circle cx="390" cy="365" r="150" fill="#a74f36"/><rect x="280" y="310" width="92" height="42" rx="16" fill="#9d5538" transform="rotate(20 326 331)"/><rect x="380" y="285" width="92" height="42" rx="16" fill="#c27648" transform="rotate(-12 426 306)"/><rect x="420" y="370" width="92" height="42" rx="16" fill="#a85839" transform="rotate(18 466 391)"/><rect x="300" y="390" width="92" height="42" rx="16" fill="#c46a43" transform="rotate(-16 346 411)"/><circle cx="350" cy="350" r="18" fill="#789e69"/><circle cx="460" cy="330" r="16" fill="#e2b950"/><circle cx="380" cy="420" r="15" fill="#789e69"/><g fill="none" stroke="#fff" stroke-width="12" stroke-linecap="round" opacity=".72">
<path d="M315 180c-28-34 28-54 0-90"/><path d="M385 186c-28-34 28-54 0-90"/><path d="M455 180c-28-34 28-54 0-90"/></g></svg>
