<svg xmlns="http://www.w3.org/2000/svg" viewBox="0 0 800 600" role="img" aria-labelledby="title desc">
<title id="title">감자탕 일러스트</title><desc id="desc">감자탕를 따뜻한 플랫 일러스트로 표현한 이미지</desc>
<defs>
  <linearGradient id="bg" x1="0" y1="0" x2="1" y2="1"><stop offset="0" stop-color="#d8b36c"/><stop offset="1" stop-color="#b94f3a"/></linearGradient>
  <filter id="shadow" x="-30%" y="-30%" width="160%" height="160%"><feDropShadow dx="0" dy="16" stdDeviation="18" flood-color="#4f3527" flood-opacity=".18"/></filter>
  <filter id="soft" x="-30%" y="-30%" width="160%" height="160%"><feGaussianBlur stdDeviation="26"/></filter>
</defs>
<rect width="800" height="600" rx="48" fill="url(#bg)"/>
<circle cx="120" cy="100" r="92" fill="#fff" opacity=".18"/>
<circle cx="700" cy="500" r="150" fill="#fff" opacity=".12"/>
<path d="M70 476C170 414 258 447 353 430c122-22 218-101 377-42v212H70z" fill="#fff" opacity=".13"/>
<ellipse cx="400" cy="451" rx="248" ry="86" fill="#432d23" opacity=".18" filter="url(#soft)"/>
<path d="M190 278h420l-34 218H224z" fill="#403b39" filter="url(#shadow)"/>
<rect x="135" y="315" width="90" height="34" rx="17" fill="#403b39"/><rect x="575" y="315" width="90" height="34" rx="17" fill="#403b39"/>
<ellipse cx="400" cy="281" rx="210" ry="82" fill="#292827"/>
<ellipse cx="400" cy="276" rx="190" ry="66" fill="#b94f3a"/><g stroke="#efe2c0" stroke-width="20" stroke-linecap="round"><path d="M300 284l72-18"/><path d="M425 302l76-30"/></g><g fill="#efe2c0"><circle cx="293" cy="286" r="16"/><circle cx="375" cy="265" r="16"/><circle cx="418" cy="305" r="16"/><circle cx="506" cy="270" r="16"/></g><circle cx="346" cy="315" r="24" fill="#d4a64c"/><circle cx="470" cy="318" r="25" fill="#7ca06b"/><circle cx="395" cy="258" r="16" fill="#d4a64c"/><g fill="none" stroke="#fff" stroke-width="12" stroke-linecap="round" opacity=".72">
<path d="M320 180c-28-34 28-54 0-90"/><path d="M390 186c-28-34 28-54 0-90"/><path d="M460 180c-28-34 28-54 0-90"/></g></svg>
