<svg xmlns="http://www.w3.org/2000/svg" viewBox="0 0 800 600" role="img" aria-labelledby="title desc">
<title id="title">칼국수 일러스트</title><desc id="desc">칼국수를 따뜻한 플랫 일러스트로 표현한 이미지</desc>
<defs>
  <linearGradient id="bg" x1="0" y1="0" x2="1" y2="1"><stop offset="0" stop-color="#f1ddaf"/><stop offset="1" stop-color="#d9b36e"/></linearGradient>
  <filter id="shadow" x="-30%" y="-30%" width="160%" height="160%"><feDropShadow dx="0" dy="16" stdDeviation="18" flood-color="#4f3527" flood-opacity=".18"/></filter>
  <filter id="soft" x="-30%" y="-30%" width="160%" height="160%"><feGaussianBlur stdDeviation="26"/></filter>
</defs>
<rect width="800" height="600" rx="48" fill="url(#bg)"/>
<circle cx="120" cy="100" r="92" fill="#fff" opacity=".18"/>
<circle cx="700" cy="500" r="150" fill="#fff" opacity=".12"/>
<path d="M70 476C170 414 258 447 353 430c122-22 218-101 377-42v212H70z" fill="#fff" opacity=".13"/>
<ellipse cx="400" cy="430" rx="250" ry="92" fill="#5b3a2c" opacity=".18" filter="url(#soft)"/>
<path d="M185 332h430c-18 168-92 216-215 216S203 500 185 332z" fill="#f2e6cf" filter="url(#shadow)"/>
<ellipse cx="400" cy="332" rx="218" ry="88" fill="#6e5d4c"/>
<ellipse cx="400" cy="326" rx="196" ry="70" fill="#f1ddaf"/><g fill="none" stroke="#f1c96e" stroke-width="12" stroke-linecap="round"><path d="M258 316c44-46 83 45 126 0s82 43 132-5"/><path d="M280 344c38-36 72 32 112-2s71 30 108-4"/></g><circle cx="320" cy="294" r="18" fill="#6f9966"/><circle cx="426" cy="302" r="15" fill="#fff5dc"/><circle cx="500" cy="330" r="14" fill="#d59d55"/><path d="M470 200l70 155M510 190l66 152" stroke="#684c3a" stroke-width="10" stroke-linecap="round"/><g fill="none" stroke="#fff" stroke-width="12" stroke-linecap="round" opacity=".72">
<path d="M320 195c-28-34 28-54 0-90"/><path d="M390 201c-28-34 28-54 0-90"/><path d="M460 195c-28-34 28-54 0-90"/></g></svg>
