<svg xmlns="http://www.w3.org/2000/svg" viewBox="0 0 800 600" role="img" aria-labelledby="title desc">
<title id="title">돈카츠 일러스트</title><desc id="desc">돈카츠를 따뜻한 플랫 일러스트로 표현한 이미지</desc>
<defs>
  <linearGradient id="bg" x1="0" y1="0" x2="1" y2="1"><stop offset="0" stop-color="#eac26f"/><stop offset="1" stop-color="#c68b45"/></linearGradient>
  <filter id="shadow" x="-30%" y="-30%" width="160%" height="160%"><feDropShadow dx="0" dy="16" stdDeviation="18" flood-color="#4f3527" flood-opacity=".18"/></filter>
  <filter id="soft" x="-30%" y="-30%" width="160%" height="160%"><feGaussianBlur stdDeviation="26"/></filter>
</defs>
<rect width="800" height="600" rx="48" fill="url(#bg)"/>
<circle cx="120" cy="100" r="92" fill="#fff" opacity=".18"/>
<circle cx="700" cy="500" r="150" fill="#fff" opacity=".12"/>
<path d="M70 476C170 414 258 447 353 430c122-22 218-101 377-42v212H70z" fill="#fff" opacity=".13"/>
<ellipse cx="400" cy="420" rx="270" ry="112" fill="#6e4b39" opacity=".18" filter="url(#soft)"/>
<ellipse cx="400" cy="390" rx="260" ry="126" fill="#fff" filter="url(#shadow)"/>
<ellipse cx="400" cy="390" rx="220" ry="94" fill="#f2ead7"/><path d="M260 337c40-68 226-72 280 0 45 61-36 124-140 122-103-2-178-61-140-122z" fill="#c68a40" stroke="#8d5b2e" stroke-width="7"/><g stroke="#f0c26d" stroke-width="8"><path d="M315 312l-18 131M365 300l-10 150M416 298l1 155M469 307l11 136"/></g><circle cx="545" cy="370" r="28" fill="#78a26a"/><circle cx="535" cy="420" r="22" fill="#f1d16f"/></svg>
